<?xml version="1.0" encoding="UTF-8" standalone="no" ?>
<!DOCTYPE svg PUBLIC "-//W3C//DTD SVG 1.1//EN" "http://www.w3.org/Graphics/SVG/1.1/DTD/svg11.dtd">
<svg xmlns="http://www.w3.org/2000/svg" xmlns:xlink="http://www.w3.org/1999/xlink" version="1.1" width="640" height="480" viewBox="0 0 640 480" xml:space="preserve">
<desc>Created with Fabric.js 3.6.3</desc>
<defs>
</defs>
<g transform="matrix(6.36 0 0 6.36 314.87 238.87)"  >
<polygon style="stroke: rgb(0,0,0); stroke-width: 8; stroke-dasharray: none; stroke-linecap: butt; stroke-dashoffset: 0; stroke-linejoin: miter; stroke-miterlimit: 4; fill: rgb(255,0,0); fill-rule: nonzero; opacity: 1;" vector-effect="non-scaling-stroke"  points="-15.5,37.4 -37.4,15.5 -37.4,-15.5 -15.5,-37.4 15.5,-37.4 37.4,-15.5 37.4,15.5 15.5,37.4 " />
</g>
<g transform="matrix(2.99 0 0 2.99 316.61 237.61)"  >
<path style="stroke: rgb(0,0,0); stroke-width: 8; stroke-dasharray: none; stroke-linecap: butt; stroke-dashoffset: 0; stroke-linejoin: miter; stroke-miterlimit: 10; fill: rgb(15,15,15); fill-rule: evenodd; opacity: 1;" vector-effect="non-scaling-stroke"  transform=" translate(-59.83, -59.83)" d="m 0 59.82677 l 9.952638 -6.5662766 l -7.91409 -8.91803 l 11.312678 -3.7663116 l -5.3359585 -10.662767 l 11.902236 -0.7101288 l -2.3946476 -11.680401 l 11.680401 2.3946476 l 0.7101288 -11.902236 l 10.662767 5.3359585 l 3.7663116 -11.312678 l 8.91803 7.91409 l 6.5662766 -9.952638 l 6.5662804 9.952638 l 8.91803 -7.91409 l 3.7663116 11.312678 l 10.6627655 -5.3359585 l 0.7101288 11.902236 l 11.680397 -2.3946476 l -2.3946457 11.680401 l 11.902237 0.7101288 l -5.3359604 10.662767 l 11.312683 3.7663116 l -7.914093 8.91803 l 9.952637 6.5662766 l -9.952637 6.5662804 l 7.914093 8.91803 l -11.312683 3.7663116 l 5.3359604 10.6627655 l -11.902237 0.7101288 l 2.3946457 11.680397 l -11.680397 -2.3946457 l -0.7101288 11.902237 l -10.6627655 -5.3359604 l -3.7663116 11.312683 l -8.91803 -7.914093 l -6.5662804 9.952637 l -6.5662766 -9.952637 l -8.91803 7.914093 l -3.7663116 -11.312683 l -10.662767 5.3359604 l -0.7101288 -11.902237 l -11.680401 2.3946457 l 2.3946476 -11.680397 l -11.902236 -0.7101288 l 5.3359585 -10.6627655 l -11.312678 -3.7663116 l 7.91409 -8.91803 z" stroke-linecap="round" />
</g>
<g transform="matrix(1.64 0 0 1.64 314.85 244.85)"  >
<path style="stroke: rgb(0,0,0); stroke-width: 8; stroke-dasharray: none; stroke-linecap: butt; stroke-dashoffset: 0; stroke-linejoin: miter; stroke-miterlimit: 4; fill: rgb(255,0,0); fill-rule: nonzero; opacity: 1;" vector-effect="non-scaling-stroke"  transform=" translate(-51.83, -51.83)" d="m 0 51.82677 l 0 0 c 0 -28.623135 23.203636 -51.82677 51.82677 -51.82677 l 0 0 c 13.745312 0 26.927654 5.4603047 36.64706 15.17971 c 9.719406 9.719404 15.17971 22.901749 15.17971 36.64706 l 0 0 c 0 28.623135 -23.203636 51.82677 -51.82677 51.82677 l 0 0 c -28.623135 0 -51.82677 -23.203636 -51.82677 -51.82677 z m 25.913385 0 l 0 0 c 0 14.311565 11.60182 25.913387 25.913385 25.913387 c 14.311565 0 25.913387 -11.601822 25.913387 -25.913387 c 0 -14.311565 -11.601822 -25.913385 -25.913387 -25.913385 l 0 0 c -14.311565 0 -25.913385 11.60182 -25.913385 25.913385 z" stroke-linecap="round" />
</g>
</svg>